<svg xmlns="http://www.w3.org/2000/svg" width="14" height="13" viewBox="0 0 14 13" fill="none">
<path d="M10.7065 13.0005C10.5999 13.0009 10.4947 12.9757 10.3998 12.9271L6.99984 11.1471L3.59984 12.9271C3.48944 12.9852 3.36496 13.0111 3.24056 13.0019C3.11616 12.9928 2.99683 12.9489 2.89613 12.8753C2.79543 12.8016 2.7174 12.7013 2.67092 12.5855C2.62443 12.4697 2.61136 12.3433 2.63318 12.2205L3.29984 8.46713L0.553175 5.80046C0.46748 5.71494 0.406689 5.60771 0.377327 5.49026C0.347964 5.37281 0.351138 5.24958 0.386508 5.13379C0.425148 5.01531 0.496226 4.91003 0.591675 4.8299C0.687124 4.74977 0.803124 4.698 0.926509 4.68046L4.72651 4.12713L6.39984 0.707128C6.45443 0.594414 6.53967 0.499356 6.64578 0.432844C6.7519 0.366331 6.8746 0.331055 6.99984 0.331055C7.12508 0.331055 7.24779 0.366331 7.3539 0.432844C7.46002 0.499356 7.54525 0.594414 7.59984 0.707128L9.29317 4.12046L13.0932 4.6738C13.2166 4.69133 13.3326 4.7431 13.428 4.82323C13.5235 4.90336 13.5945 5.00864 13.6332 5.12713C13.6685 5.24291 13.6717 5.36614 13.6424 5.48359C13.613 5.60104 13.5522 5.70828 13.4665 5.79379L10.7198 8.46046L11.3865 12.2138C11.4103 12.3388 11.3978 12.468 11.3506 12.5861C11.3033 12.7042 11.2233 12.8064 11.1198 12.8805C10.9991 12.9651 10.8538 13.0073 10.7065 13.0005Z" fill="#ffffff"/>
</svg>