<svg width="268" height="40" viewBox="0 0 268 40" fill="none" xmlns="http://www.w3.org/2000/svg">
<path d="M249.329 13.0739L259.236 37.5272C259.375 37.8572 259.412 38.1406 259.342 38.3806C259.322 38.4806 259.262 38.5939 259.156 38.7272C259.049 38.8539 258.852 38.9139 258.569 38.9139H254.795C254.295 38.9139 253.955 38.6539 253.769 38.1272L245.022 16.2872C244.996 16.2439 244.982 16.2206 244.982 16.2206H244.836C244.836 16.2206 244.829 16.2272 244.822 16.2339C244.812 16.2439 244.796 16.2739 244.769 16.3272L240.249 27.7539H244.636C245.122 27.7539 245.462 27.9906 245.649 28.4606L246.929 31.6072C247.042 32.0072 246.996 32.3472 246.782 32.6206C246.596 32.9606 246.289 33.1272 245.862 33.1272H238.129L236.129 38.1672C235.932 38.6672 235.599 38.9139 235.129 38.9139H231.249C230.972 38.9139 230.782 38.8539 230.676 38.7272C230.569 38.5939 230.502 38.4806 230.476 38.3806C230.402 38.1672 230.426 37.8839 230.542 37.5272L240.396 13.0739C240.866 11.8306 241.382 10.9739 241.942 10.5006C242.012 10.4572 242.092 10.4006 242.182 10.3272C242.279 10.2572 242.376 10.1939 242.476 10.1406C243.176 9.65389 243.989 9.40723 244.916 9.40723C245.876 9.40723 246.742 9.70056 247.516 10.2872C248.296 10.8739 248.829 11.6272 249.115 12.5406C249.159 12.6139 249.199 12.6972 249.236 12.7939C249.269 12.8839 249.302 12.9772 249.329 13.0739Z" fill="#F9943B"/>
<path d="M266.113 9.79395C266.253 9.79395 266.453 9.86728 266.713 10.0073C266.98 10.1506 267.113 10.4939 267.113 11.0339V37.6739C267.113 38.2173 266.98 38.5606 266.713 38.7006C266.453 38.8439 266.253 38.9139 266.113 38.9139H262.873C262.73 38.9139 262.53 38.8439 262.273 38.7006C262.013 38.5606 261.887 38.2173 261.887 37.6739V11.0339C261.887 10.4939 262.013 10.1506 262.273 10.0073C262.53 9.86728 262.73 9.79395 262.873 9.79395H266.113Z" fill="#F9943B"/>
<path d="M17.04 21.4727C18.88 21.4727 20.28 22.1194 21.24 23.406C22.1533 24.6794 22.6133 26.4694 22.6133 28.7794V31.886C22.6133 33.906 22.1667 35.5627 21.28 36.8594C20.3633 38.176 18.9267 38.8327 16.9733 38.8327H1.05333C0.893333 38.8327 0.68 38.7727 0.413333 38.646C0.153334 38.5127 0.0266667 38.176 0.0266667 37.6327V34.806C0.0266667 34.266 0.153334 33.9327 0.413333 33.806C0.68 33.6727 0.893333 33.606 1.05333 33.606H16.12C16.43 33.606 16.6467 33.5527 16.7733 33.446C16.9067 33.3394 17.0067 33.2427 17.08 33.1527C17.2933 32.7994 17.4 32.306 17.4 31.6727V28.6327C17.4 27.7627 17.2567 27.2194 16.9733 27.006C16.6867 26.7927 16.4167 26.686 16.16 26.686H5.57333C4.84333 26.686 4.09667 26.5927 3.33333 26.406C2.56667 26.2194 1.91333 25.7627 1.37333 25.0327C0.456666 23.736 0 21.856 0 19.3927V16.6994C0 14.6294 0.456666 12.9594 1.37333 11.686C2.28667 10.3994 3.71 9.75269 5.64 9.75269H20.8533C20.9933 9.75269 21.1933 9.81935 21.4533 9.95269C21.71 10.0794 21.84 10.4127 21.84 10.9527V13.7794C21.84 14.3227 21.71 14.6594 21.4533 14.7927C21.1933 14.9194 20.9933 14.9794 20.8533 14.9794H6.49333C6.18 14.9794 5.96 15.0294 5.82667 15.126C5.7 15.216 5.60333 15.3194 5.53333 15.4327C5.34667 15.806 5.25333 16.2994 5.25333 16.9127V19.526C5.25333 20.3994 5.38667 20.9394 5.65333 21.1527C5.92667 21.366 6.19333 21.4727 6.45333 21.4727H17.04Z" fill="#F9943B"/>
<path d="M49.83 9.75269C49.99 9.75269 50.1967 9.81935 50.4567 9.95269C50.7234 10.0794 50.8567 10.4127 50.8567 10.9527V13.6994C50.8567 14.296 50.7234 14.6594 50.4567 14.7927C50.1967 14.9194 49.99 14.9794 49.83 14.9794H40.7634V37.6327C40.7634 38.176 40.6367 38.5127 40.39 38.646C40.14 38.7727 39.93 38.8327 39.7634 38.8327H36.5234C36.38 38.8327 36.18 38.7727 35.9234 38.646C35.6634 38.5127 35.5367 38.176 35.5367 37.6327V14.9794H26.47C26.3 14.9794 26.0867 14.9194 25.83 14.7927C25.57 14.6594 25.4434 14.296 25.4434 13.6994V10.9527C25.4434 10.4127 25.57 10.0794 25.83 9.95269C26.0867 9.81935 26.3 9.75269 26.47 9.75269H49.83Z" fill="#F9943B"/>
<path d="M78.0625 9.75269C78.2225 9.75269 78.4258 9.81935 78.6758 9.95269C78.9225 10.0794 79.0491 10.4127 79.0491 10.9527V27.7794C79.0491 28.776 79.0124 29.696 78.9424 30.5394C78.8691 31.386 78.7558 32.1494 78.5958 32.8327C78.2558 34.2927 77.7491 35.4427 77.0758 36.286C76.3891 37.186 75.4691 37.846 74.3158 38.2727C73.2558 38.646 71.9291 38.8327 70.3291 38.8327H62.3958C60.7958 38.8327 59.4624 38.646 58.3958 38.2727C57.8624 38.0594 57.3591 37.7894 56.8891 37.4594C56.4158 37.1327 56.0158 36.7394 55.6891 36.286C54.9591 35.3994 54.4391 34.246 54.1291 32.8327C53.9691 32.1494 53.8524 31.386 53.7824 30.5394C53.7091 29.696 53.6758 28.776 53.6758 27.7794V10.9527C53.6758 10.4127 53.8024 10.0794 54.0624 9.95269C54.3191 9.81935 54.5324 9.75269 54.7024 9.75269H57.9024C58.0691 9.75269 58.2791 9.81935 58.5291 9.95269C58.7758 10.0794 58.9024 10.4127 58.9024 10.9527V28.3527C58.9024 28.8694 58.9158 29.3594 58.9424 29.8194C58.9758 30.2727 59.0224 30.666 59.0758 30.9927C59.2158 31.6327 59.4158 32.1627 59.6758 32.5794C59.9591 32.936 60.3091 33.1994 60.7291 33.366C60.9691 33.4394 61.2391 33.496 61.5424 33.5394C61.8424 33.586 62.1858 33.606 62.5691 33.606H70.1958C70.5691 33.606 70.9058 33.586 71.2091 33.5394C71.5191 33.496 71.7891 33.4394 72.0224 33.366C72.4491 33.1994 72.8025 32.936 73.0891 32.5794C73.2024 32.3927 73.3158 32.166 73.4224 31.8994C73.5291 31.626 73.6024 31.3227 73.6491 30.9927C73.6924 30.666 73.7325 30.2727 73.7691 29.8194C73.8025 29.3594 73.8225 28.8694 73.8225 28.3527V10.9527C73.8225 10.4127 73.9458 10.0794 74.1958 9.95269C74.4424 9.81935 74.6491 9.75269 74.8091 9.75269H78.0625Z" fill="#F9943B"/>
<path d="M105.978 16.3127C106.324 17.7994 106.498 19.5394 106.498 21.5394V27.086C106.498 29.086 106.324 30.826 105.978 32.2994C105.808 33.0294 105.578 33.7094 105.284 34.3394C104.991 34.9627 104.658 35.5094 104.284 35.9794C103.501 36.966 102.501 37.696 101.284 38.166C100.084 38.6394 98.6578 38.8727 97.0044 38.8727H84.9378C84.3944 38.8727 83.8844 38.7394 83.4044 38.4727C82.9244 38.1994 82.5411 37.826 82.2578 37.3527C82.0711 37.026 81.9411 36.6594 81.8711 36.2594L81.8978 12.1527C81.9511 12.0127 82.0044 11.866 82.0578 11.7127C82.1178 11.5627 82.1844 11.416 82.2578 11.2727C82.8178 10.3494 83.6311 9.85602 84.6978 9.79269V9.75269H97.0044C98.6311 9.75269 100.058 9.98935 101.284 10.4594C102.484 10.9327 103.484 11.646 104.284 12.606C104.658 13.106 104.991 13.6594 105.284 14.2727C105.578 14.886 105.808 15.566 105.978 16.3127ZM87.0578 33.4327C87.0578 33.506 87.0611 33.5527 87.0711 33.5794C87.0878 33.5994 87.0978 33.606 87.0978 33.606H96.8978C97.2978 33.606 97.6744 33.586 98.0311 33.5394C98.3844 33.496 98.7044 33.426 98.9911 33.326C99.5244 33.1127 99.9544 32.7994 100.284 32.3794C100.638 31.9094 100.888 31.296 101.031 30.5394C101.101 30.1394 101.158 29.6994 101.204 29.2194C101.258 28.7327 101.284 28.1927 101.284 27.606V21.006C101.284 20.4194 101.258 19.8827 101.204 19.3927C101.158 18.896 101.101 18.446 101.031 18.046C100.888 17.2927 100.638 16.6927 100.284 16.246C100.008 15.8194 99.5778 15.4994 98.9911 15.286C98.4211 15.0827 97.7244 14.9794 96.8978 14.9794H87.1244C87.0778 14.9794 87.0578 15.0527 87.0578 15.1927V33.4327Z" fill="#F9943B"/>
<path d="M135.447 9.75269C135.747 9.75269 135.957 9.90602 136.073 10.206C136.143 10.4927 136.107 10.7627 135.967 11.0194L125.273 29.8994V37.6327C125.273 38.176 125.143 38.5127 124.887 38.646C124.627 38.7727 124.427 38.8327 124.287 38.8327H121.047C120.903 38.8327 120.7 38.7727 120.433 38.646C120.173 38.5127 120.047 38.176 120.047 37.6327V29.8994L109.46 11.0194C109.317 10.7627 109.28 10.506 109.353 10.246C109.423 9.91935 109.637 9.75269 109.993 9.75269H114.02C114.18 9.75269 114.353 9.79269 114.54 9.87269C114.733 9.95269 114.903 10.136 115.047 10.4194L122.74 24.5394L130.5 10.3927C130.64 10.126 130.807 9.95269 130.993 9.87269C131.18 9.79269 131.357 9.75269 131.527 9.75269H135.447Z" fill="#F9943B"/>
<path d="M163.349 18.7527C163.349 20.986 162.762 22.6927 161.589 23.8727C162.886 25.046 163.536 26.7994 163.536 29.126V31.486C163.536 32.0294 163.509 32.5527 163.456 33.0594C163.409 33.566 163.342 34.0427 163.256 34.486C163.156 34.9394 163.032 35.3627 162.882 35.7527C162.729 36.136 162.536 36.4927 162.296 36.8194C161.896 37.4594 161.309 37.966 160.536 38.3394C159.822 38.696 158.939 38.8727 157.882 38.8727H142.002C141.459 38.8727 140.949 38.7394 140.469 38.4727C139.989 38.1994 139.606 37.826 139.322 37.3527C139.136 37.026 139.006 36.6594 138.936 36.2594L138.962 12.1527C139.016 12.0127 139.069 11.866 139.122 11.7127C139.182 11.5627 139.249 11.416 139.322 11.2727C139.882 10.3494 140.696 9.85602 141.762 9.79269V9.75269H157.349C159.516 9.75269 161.059 10.3527 161.976 11.5527C162.889 12.7094 163.349 14.4527 163.349 16.7794V18.7527ZM144.122 33.4327C144.122 33.506 144.126 33.5527 144.136 33.5794C144.152 33.5994 144.162 33.606 144.162 33.606H156.442C157.142 33.606 157.636 33.456 157.922 33.1527C158.206 32.826 158.349 32.2594 158.349 31.4594V29.0594C158.349 28.306 158.192 27.7394 157.882 27.366C157.552 26.986 156.942 26.7927 156.056 26.7927H149.202C148.899 26.7927 148.629 26.6827 148.389 26.4594C148.156 26.2394 148.042 25.9627 148.042 25.6327V22.7394C148.042 22.4127 148.156 22.136 148.389 21.9127C148.629 21.6927 148.899 21.5794 149.202 21.5794H156.056C156.969 21.5794 157.569 21.416 157.856 21.086C158.156 20.7494 158.309 20.2294 158.309 19.526V17.086C158.309 16.3127 158.166 15.776 157.882 15.4727C157.596 15.146 157.116 14.9794 156.442 14.9794H144.189C144.142 14.9794 144.122 15.0527 144.122 15.1927V33.4327Z" fill="#F9943B"/>
<path d="M221.387 9.75269C221.547 9.75269 221.753 9.81935 222.013 9.95269C222.28 10.0794 222.413 10.4127 222.413 10.9527V13.6994C222.413 14.296 222.28 14.6594 222.013 14.7927C221.753 14.9194 221.547 14.9794 221.387 14.9794H212.32V37.6327C212.32 38.176 212.193 38.5127 211.947 38.646C211.697 38.7727 211.487 38.8327 211.32 38.8327H208.08C207.937 38.8327 207.737 38.7727 207.48 38.646C207.22 38.5127 207.093 38.176 207.093 37.6327V14.9794H198.027C197.857 14.9794 197.643 14.9194 197.387 14.7927C197.127 14.6594 197 14.296 197 13.6994V10.9527C197 10.4127 197.127 10.0794 197.387 9.95269C197.643 9.81935 197.857 9.75269 198.027 9.75269H221.387Z" fill="#F9943B"/>
<mask id="mask0_1663_25393" style="mask-type:luminance" maskUnits="userSpaceOnUse" x="166" y="9" width="30" height="31">
<path d="M166.25 9.89673H195.427V39.0734H166.25V9.89673Z" fill="white"/>
</mask>
<g mask="url(#mask0_1663_25393)">
<mask id="mask1_1663_25393" style="mask-type:luminance" maskUnits="userSpaceOnUse" x="166" y="9" width="30" height="31">
<path d="M180.84 9.89673C172.783 9.89673 166.25 16.4301 166.25 24.4867C166.25 32.5434 172.783 39.0734 180.84 39.0734C188.897 39.0734 195.427 32.5434 195.427 24.4867C195.427 16.4301 188.897 9.89673 180.84 9.89673Z" fill="white"/>
</mask>
<g mask="url(#mask1_1663_25393)">
<path d="M166.25 9.89673H195.427V39.0734H166.25V9.89673Z" fill="#003060"/>
</g>
</g>
<mask id="mask2_1663_25393" style="mask-type:luminance" maskUnits="userSpaceOnUse" x="152" y="0" width="30" height="20">
<path d="M152.453 0.896729H181.21V19.2101H152.453V0.896729Z" fill="white"/>
</mask>
<g mask="url(#mask2_1663_25393)">
<mask id="mask3_1663_25393" style="mask-type:luminance" maskUnits="userSpaceOnUse" x="152" y="0" width="30" height="20">
<path d="M152.453 10.0534L181.196 0.896729V19.2101L152.453 10.0534Z" fill="white"/>
</mask>
<g mask="url(#mask3_1663_25393)">
<path d="M152.453 19.2101V0.896729H181.21V19.2101H152.453Z" fill="#003060"/>
</g>
</g>
<mask id="mask4_1663_25393" style="mask-type:luminance" maskUnits="userSpaceOnUse" x="180" y="0" width="30" height="20">
<path d="M180.824 0.899902H209.581V19.2132H180.824V0.899902Z" fill="white"/>
</mask>
<g mask="url(#mask4_1663_25393)">
<mask id="mask5_1663_25393" style="mask-type:luminance" maskUnits="userSpaceOnUse" x="180" y="0" width="30" height="20">
<path d="M209.581 10.0566L180.838 19.2132V0.899902L209.581 10.0566Z" fill="white"/>
</mask>
<g mask="url(#mask5_1663_25393)">
<path d="M209.581 0.899902V19.2132H180.824V0.899902H209.581Z" fill="#003060"/>
</g>
</g>
<mask id="mask6_1663_25393" style="mask-type:luminance" maskUnits="userSpaceOnUse" x="196" y="7" width="4" height="15">
<path d="M196.68 7.54346H199.186V21.9735H196.68V7.54346Z" fill="white"/>
</mask>
<g mask="url(#mask6_1663_25393)">
<mask id="mask7_1663_25393" style="mask-type:luminance" maskUnits="userSpaceOnUse" x="196" y="7" width="4" height="15">
<path d="M197.933 7.54346L199.186 21.9735H196.68L197.933 7.54346Z" fill="white"/>
</mask>
<g mask="url(#mask7_1663_25393)">
<path d="M196.68 7.54346H199.186V21.9735H196.68V7.54346Z" fill="#003060"/>
</g>
</g>
<path d="M185.824 19.9668V25.8868" stroke="white" stroke-width="2.65884" stroke-linecap="round"/>
<path d="M175.695 19.9668V25.8868" stroke="white" stroke-width="2.65884" stroke-linecap="round"/>
</svg>
