<svg xmlns="http://www.w3.org/2000/svg" xmlns:xlink="http://www.w3.org/1999/xlink" width="500" zoomAndPan="magnify" viewBox="0 0 375 374.999991" height="500" preserveAspectRatio="xMidYMid meet" version="1.0"><defs><g/><clipPath id="c17b1c22e2"><path d="M 223.136719 163.941406 L 257.328125 163.941406 L 257.328125 198.132812 L 223.136719 198.132812 Z M 223.136719 163.941406 " clip-rule="nonzero"/></clipPath><clipPath id="584b4939ce"><path d="M 240.234375 163.941406 C 230.792969 163.941406 223.136719 171.597656 223.136719 181.039062 C 223.136719 190.480469 230.792969 198.132812 240.234375 198.132812 C 249.675781 198.132812 257.328125 190.480469 257.328125 181.039062 C 257.328125 171.597656 249.675781 163.941406 240.234375 163.941406 Z M 240.234375 163.941406 " clip-rule="nonzero"/></clipPath><clipPath id="d8ef9454a0"><path d="M 206.96875 153.394531 L 240.667969 153.394531 L 240.667969 174.855469 L 206.96875 174.855469 Z M 206.96875 153.394531 " clip-rule="nonzero"/></clipPath><clipPath id="a2520215d0"><path d="M 206.96875 164.125 L 240.652344 153.394531 L 240.652344 174.855469 Z M 206.96875 164.125 " clip-rule="nonzero"/></clipPath><clipPath id="ba68a034f3"><path d="M 240.214844 153.398438 L 273.914062 153.398438 L 273.914062 174.859375 L 240.214844 174.859375 Z M 240.214844 153.398438 " clip-rule="nonzero"/></clipPath><clipPath id="1e6b23b496"><path d="M 273.914062 164.128906 L 240.230469 174.859375 L 240.230469 153.398438 Z M 273.914062 164.128906 " clip-rule="nonzero"/></clipPath><clipPath id="4088895385"><path d="M 258.796875 161.183594 L 261.734375 161.183594 L 261.734375 178.09375 L 258.796875 178.09375 Z M 258.796875 161.183594 " clip-rule="nonzero"/></clipPath><clipPath id="cdfb5ccb4b"><path d="M 260.265625 161.183594 L 261.734375 178.09375 L 258.796875 178.09375 Z M 260.265625 161.183594 " clip-rule="nonzero"/></clipPath></defs><g fill="#f9943b" fill-opacity="1"><g transform="translate(295.009153, 197.899063)"><g><path d="M 25.484375 -30.234375 L 37.09375 -1.578125 C 37.257812 -1.191406 37.300781 -0.859375 37.21875 -0.578125 C 37.195312 -0.460938 37.125 -0.328125 37 -0.171875 C 36.875 -0.0234375 36.644531 0.046875 36.3125 0.046875 L 31.890625 0.046875 C 31.304688 0.046875 30.90625 -0.257812 30.6875 -0.875 L 20.4375 -26.46875 C 20.40625 -26.519531 20.390625 -26.546875 20.390625 -26.546875 L 20.21875 -26.546875 C 20.21875 -26.546875 20.210938 -26.539062 20.203125 -26.53125 C 20.191406 -26.519531 20.171875 -26.484375 20.140625 -26.421875 L 14.84375 -13.03125 L 19.984375 -13.03125 C 20.554688 -13.03125 20.953125 -12.753906 21.171875 -12.203125 L 22.671875 -8.515625 C 22.804688 -8.046875 22.75 -7.648438 22.5 -7.328125 C 22.28125 -6.929688 21.921875 -6.734375 21.421875 -6.734375 L 12.359375 -6.734375 L 10.015625 -0.828125 C 9.785156 -0.242188 9.394531 0.046875 8.84375 0.046875 L 4.296875 0.046875 C 3.972656 0.046875 3.75 -0.0234375 3.625 -0.171875 C 3.5 -0.328125 3.421875 -0.460938 3.390625 -0.578125 C 3.304688 -0.828125 3.332031 -1.160156 3.46875 -1.578125 L 15.015625 -30.234375 C 15.566406 -31.691406 16.171875 -32.695312 16.828125 -33.25 C 16.910156 -33.300781 17.003906 -33.367188 17.109375 -33.453125 C 17.222656 -33.535156 17.335938 -33.609375 17.453125 -33.671875 C 18.273438 -34.242188 19.226562 -34.53125 20.3125 -34.53125 C 21.4375 -34.53125 22.453125 -34.1875 23.359375 -33.5 C 24.273438 -32.8125 24.898438 -31.929688 25.234375 -30.859375 C 25.285156 -30.773438 25.332031 -30.675781 25.375 -30.5625 C 25.414062 -30.457031 25.453125 -30.347656 25.484375 -30.234375 Z M 25.484375 -30.234375 "/></g></g></g><g fill="#f9943b" fill-opacity="1"><g transform="translate(331.898135, 197.899063)"><g><path d="M 8.265625 -34.078125 C 8.429688 -34.078125 8.664062 -33.992188 8.96875 -33.828125 C 9.28125 -33.660156 9.4375 -33.257812 9.4375 -32.625 L 9.4375 -1.40625 C 9.4375 -0.769531 9.28125 -0.367188 8.96875 -0.203125 C 8.664062 -0.0351562 8.429688 0.046875 8.265625 0.046875 L 4.46875 0.046875 C 4.300781 0.046875 4.066406 -0.0351562 3.765625 -0.203125 C 3.460938 -0.367188 3.3125 -0.769531 3.3125 -1.40625 L 3.3125 -32.625 C 3.3125 -33.257812 3.460938 -33.660156 3.765625 -33.828125 C 4.066406 -33.992188 4.300781 -34.078125 4.46875 -34.078125 Z M 8.265625 -34.078125 "/></g></g></g><g fill="#f9943b" fill-opacity="1"><g transform="translate(24.99971, 197.850775)"><g><path d="M 23.28125 -20.34375 C 25.4375 -20.34375 27.078125 -19.585938 28.203125 -18.078125 C 29.273438 -16.585938 29.8125 -14.488281 29.8125 -11.78125 L 29.8125 -8.140625 C 29.8125 -5.773438 29.289062 -3.832031 28.25 -2.3125 C 27.175781 -0.769531 25.492188 0 23.203125 0 L 4.546875 0 C 4.359375 0 4.109375 -0.0703125 3.796875 -0.21875 C 3.492188 -0.375 3.34375 -0.769531 3.34375 -1.40625 L 3.34375 -4.71875 C 3.34375 -5.351562 3.492188 -5.742188 3.796875 -5.890625 C 4.109375 -6.046875 4.359375 -6.125 4.546875 -6.125 L 22.203125 -6.125 C 22.566406 -6.125 22.820312 -6.1875 22.96875 -6.3125 C 23.125 -6.4375 23.242188 -6.550781 23.328125 -6.65625 C 23.578125 -7.070312 23.703125 -7.648438 23.703125 -8.390625 L 23.703125 -11.953125 C 23.703125 -12.972656 23.535156 -13.609375 23.203125 -13.859375 C 22.867188 -14.109375 22.550781 -14.234375 22.25 -14.234375 L 9.84375 -14.234375 C 8.988281 -14.234375 8.113281 -14.34375 7.21875 -14.5625 C 6.320312 -14.78125 5.554688 -15.316406 4.921875 -16.171875 C 3.847656 -17.691406 3.3125 -19.894531 3.3125 -22.78125 L 3.3125 -25.9375 C 3.3125 -28.363281 3.847656 -30.320312 4.921875 -31.8125 C 5.992188 -33.320312 7.660156 -34.078125 9.921875 -34.078125 L 27.75 -34.078125 C 27.914062 -34.078125 28.148438 -34 28.453125 -33.84375 C 28.753906 -33.695312 28.90625 -33.304688 28.90625 -32.671875 L 28.90625 -29.359375 C 28.90625 -28.722656 28.753906 -28.328125 28.453125 -28.171875 C 28.148438 -28.023438 27.914062 -27.953125 27.75 -27.953125 L 10.921875 -27.953125 C 10.554688 -27.953125 10.296875 -27.894531 10.140625 -27.78125 C 9.992188 -27.675781 9.878906 -27.554688 9.796875 -27.421875 C 9.578125 -26.984375 9.46875 -26.40625 9.46875 -25.6875 L 9.46875 -22.625 C 9.46875 -21.601562 9.625 -20.96875 9.9375 -20.71875 C 10.257812 -20.46875 10.570312 -20.34375 10.875 -20.34375 Z M 23.28125 -20.34375 "/></g></g></g><g fill="#f9943b" fill-opacity="1"><g transform="translate(54.816666, 197.850775)"><g><path d="M 31.890625 -34.078125 C 32.078125 -34.078125 32.320312 -34 32.625 -33.84375 C 32.9375 -33.695312 33.09375 -33.304688 33.09375 -32.671875 L 33.09375 -29.453125 C 33.09375 -28.753906 32.9375 -28.328125 32.625 -28.171875 C 32.320312 -28.023438 32.078125 -27.953125 31.890625 -27.953125 L 21.265625 -27.953125 L 21.265625 -1.40625 C 21.265625 -0.769531 21.117188 -0.375 20.828125 -0.21875 C 20.535156 -0.0703125 20.289062 0 20.09375 0 L 16.296875 0 C 16.128906 0 15.894531 -0.0703125 15.59375 -0.21875 C 15.289062 -0.375 15.140625 -0.769531 15.140625 -1.40625 L 15.140625 -27.953125 L 4.515625 -27.953125 C 4.316406 -27.953125 4.066406 -28.023438 3.765625 -28.171875 C 3.460938 -28.328125 3.3125 -28.753906 3.3125 -29.453125 L 3.3125 -32.671875 C 3.3125 -33.304688 3.460938 -33.695312 3.765625 -33.84375 C 4.066406 -34 4.316406 -34.078125 4.515625 -34.078125 Z M 31.890625 -34.078125 "/></g></g></g><g fill="#f9943b" fill-opacity="1"><g transform="translate(87.900887, 197.850775)"><g><path d="M 31.890625 -34.078125 C 32.078125 -34.078125 32.316406 -34 32.609375 -33.84375 C 32.898438 -33.695312 33.046875 -33.304688 33.046875 -32.671875 L 33.046875 -12.953125 C 33.046875 -11.785156 33.003906 -10.707031 32.921875 -9.71875 C 32.835938 -8.726562 32.703125 -7.832031 32.515625 -7.03125 C 32.117188 -5.320312 31.523438 -3.972656 30.734375 -2.984375 C 29.929688 -1.929688 28.851562 -1.15625 27.5 -0.65625 C 26.257812 -0.21875 24.703125 0 22.828125 0 L 13.53125 0 C 11.65625 0 10.09375 -0.21875 8.84375 -0.65625 C 8.21875 -0.90625 7.628906 -1.222656 7.078125 -1.609375 C 6.523438 -1.992188 6.054688 -2.453125 5.671875 -2.984375 C 4.816406 -4.023438 4.207031 -5.375 3.84375 -7.03125 C 3.65625 -7.832031 3.519531 -8.726562 3.4375 -9.71875 C 3.351562 -10.707031 3.3125 -11.785156 3.3125 -12.953125 L 3.3125 -32.671875 C 3.3125 -33.304688 3.460938 -33.695312 3.765625 -33.84375 C 4.066406 -34 4.316406 -34.078125 4.515625 -34.078125 L 8.265625 -34.078125 C 8.460938 -34.078125 8.707031 -34 9 -33.84375 C 9.289062 -33.695312 9.4375 -33.304688 9.4375 -32.671875 L 9.4375 -12.28125 C 9.4375 -11.675781 9.453125 -11.101562 9.484375 -10.5625 C 9.523438 -10.03125 9.578125 -9.570312 9.640625 -9.1875 C 9.804688 -8.4375 10.039062 -7.816406 10.34375 -7.328125 C 10.675781 -6.910156 11.085938 -6.601562 11.578125 -6.40625 C 11.859375 -6.320312 12.175781 -6.253906 12.53125 -6.203125 C 12.882812 -6.148438 13.285156 -6.125 13.734375 -6.125 L 22.671875 -6.125 C 23.109375 -6.125 23.503906 -6.148438 23.859375 -6.203125 C 24.222656 -6.253906 24.539062 -6.320312 24.8125 -6.40625 C 25.3125 -6.601562 25.726562 -6.910156 26.0625 -7.328125 C 26.195312 -7.546875 26.328125 -7.8125 26.453125 -8.125 C 26.578125 -8.445312 26.664062 -8.800781 26.71875 -9.1875 C 26.769531 -9.570312 26.816406 -10.03125 26.859375 -10.5625 C 26.898438 -11.101562 26.921875 -11.675781 26.921875 -12.28125 L 26.921875 -32.671875 C 26.921875 -33.304688 27.066406 -33.695312 27.359375 -33.84375 C 27.648438 -34 27.890625 -34.078125 28.078125 -34.078125 Z M 31.890625 -34.078125 "/></g></g></g><g fill="#f9943b" fill-opacity="1"><g transform="translate(120.943756, 197.850775)"><g><path d="M 31.5625 -26.390625 C 31.96875 -24.648438 32.171875 -22.609375 32.171875 -20.265625 L 32.171875 -13.765625 C 32.171875 -11.421875 31.96875 -9.382812 31.5625 -7.65625 C 31.363281 -6.800781 31.09375 -6.003906 30.75 -5.265625 C 30.40625 -4.535156 30.015625 -3.894531 29.578125 -3.34375 C 28.660156 -2.1875 27.488281 -1.332031 26.0625 -0.78125 C 24.65625 -0.226562 22.984375 0.046875 21.046875 0.046875 L 6.90625 0.046875 C 6.269531 0.046875 5.671875 -0.109375 5.109375 -0.421875 C 4.546875 -0.742188 4.097656 -1.179688 3.765625 -1.734375 C 3.546875 -2.117188 3.394531 -2.546875 3.3125 -3.015625 L 3.34375 -31.265625 C 3.40625 -31.429688 3.46875 -31.601562 3.53125 -31.78125 C 3.601562 -31.957031 3.679688 -32.128906 3.765625 -32.296875 C 4.421875 -33.378906 5.375 -33.957031 6.625 -34.03125 L 6.625 -34.078125 L 21.046875 -34.078125 C 22.953125 -34.078125 24.625 -33.800781 26.0625 -33.25 C 27.46875 -32.695312 28.640625 -31.859375 29.578125 -30.734375 C 30.015625 -30.148438 30.40625 -29.5 30.75 -28.78125 C 31.09375 -28.0625 31.363281 -27.265625 31.5625 -26.390625 Z M 9.390625 -6.328125 C 9.390625 -6.242188 9.394531 -6.1875 9.40625 -6.15625 C 9.425781 -6.132812 9.4375 -6.125 9.4375 -6.125 L 20.921875 -6.125 C 21.390625 -6.125 21.832031 -6.148438 22.25 -6.203125 C 22.664062 -6.253906 23.039062 -6.335938 23.375 -6.453125 C 24 -6.703125 24.503906 -7.070312 24.890625 -7.5625 C 25.304688 -8.113281 25.597656 -8.832031 25.765625 -9.71875 C 25.847656 -10.1875 25.914062 -10.703125 25.96875 -11.265625 C 26.03125 -11.835938 26.0625 -12.46875 26.0625 -13.15625 L 26.0625 -20.890625 C 26.0625 -21.578125 26.03125 -22.207031 25.96875 -22.78125 C 25.914062 -23.363281 25.847656 -23.890625 25.765625 -24.359375 C 25.597656 -25.242188 25.304688 -25.945312 24.890625 -26.46875 C 24.566406 -26.96875 24.0625 -27.34375 23.375 -27.59375 C 22.707031 -27.832031 21.890625 -27.953125 20.921875 -27.953125 L 9.46875 -27.953125 C 9.414062 -27.953125 9.390625 -27.867188 9.390625 -27.703125 Z M 9.390625 -6.328125 "/></g></g></g><g fill="#f9943b" fill-opacity="1"><g transform="translate(153.118102, 197.850775)"><g><path d="M 33.921875 -34.078125 C 34.273438 -34.078125 34.519531 -33.898438 34.65625 -33.546875 C 34.738281 -33.210938 34.695312 -32.894531 34.53125 -32.59375 L 22 -10.46875 L 22 -1.40625 C 22 -0.769531 21.847656 -0.375 21.546875 -0.21875 C 21.242188 -0.0703125 21.007812 0 20.84375 0 L 17.046875 0 C 16.878906 0 16.640625 -0.0703125 16.328125 -0.21875 C 16.023438 -0.375 15.875 -0.769531 15.875 -1.40625 L 15.875 -10.46875 L 3.46875 -32.59375 C 3.300781 -32.894531 3.257812 -33.195312 3.34375 -33.5 C 3.425781 -33.882812 3.675781 -34.078125 4.09375 -34.078125 L 8.8125 -34.078125 C 9 -34.078125 9.203125 -34.03125 9.421875 -33.9375 C 9.648438 -33.84375 9.847656 -33.628906 10.015625 -33.296875 L 19.03125 -16.75 L 28.125 -33.328125 C 28.289062 -33.640625 28.484375 -33.84375 28.703125 -33.9375 C 28.921875 -34.03125 29.128906 -34.078125 29.328125 -34.078125 Z M 33.921875 -34.078125 "/></g></g></g><g fill="#f9943b" fill-opacity="1"><g transform="translate(187.81528, 197.850775)"><g><path d="M 31.921875 -23.53125 C 31.921875 -20.914062 31.234375 -18.914062 29.859375 -17.53125 C 31.378906 -16.15625 32.140625 -14.101562 32.140625 -11.375 L 32.140625 -8.609375 C 32.140625 -7.972656 32.109375 -7.359375 32.046875 -6.765625 C 31.992188 -6.171875 31.914062 -5.613281 31.8125 -5.09375 C 31.695312 -4.5625 31.550781 -4.066406 31.375 -3.609375 C 31.195312 -3.160156 30.96875 -2.742188 30.6875 -2.359375 C 30.21875 -1.609375 29.53125 -1.015625 28.625 -0.578125 C 27.789062 -0.160156 26.753906 0.046875 25.515625 0.046875 L 6.90625 0.046875 C 6.269531 0.046875 5.671875 -0.109375 5.109375 -0.421875 C 4.546875 -0.742188 4.097656 -1.179688 3.765625 -1.734375 C 3.546875 -2.117188 3.394531 -2.546875 3.3125 -3.015625 L 3.34375 -31.265625 C 3.40625 -31.429688 3.46875 -31.601562 3.53125 -31.78125 C 3.601562 -31.957031 3.679688 -32.128906 3.765625 -32.296875 C 4.421875 -33.378906 5.375 -33.957031 6.625 -34.03125 L 6.625 -34.078125 L 24.890625 -34.078125 C 27.429688 -34.078125 29.238281 -33.375 30.3125 -31.96875 C 31.382812 -30.613281 31.921875 -28.570312 31.921875 -25.84375 Z M 9.390625 -6.328125 C 9.390625 -6.242188 9.394531 -6.1875 9.40625 -6.15625 C 9.425781 -6.132812 9.4375 -6.125 9.4375 -6.125 L 23.828125 -6.125 C 24.648438 -6.125 25.226562 -6.300781 25.5625 -6.65625 C 25.894531 -7.039062 26.0625 -7.703125 26.0625 -8.640625 L 26.0625 -11.453125 C 26.0625 -12.335938 25.878906 -13 25.515625 -13.4375 C 25.128906 -13.882812 24.414062 -14.109375 23.375 -14.109375 L 15.34375 -14.109375 C 14.988281 -14.109375 14.671875 -14.238281 14.390625 -14.5 C 14.117188 -14.757812 13.984375 -15.082031 13.984375 -15.46875 L 13.984375 -18.859375 C 13.984375 -19.242188 14.117188 -19.566406 14.390625 -19.828125 C 14.671875 -20.085938 14.988281 -20.21875 15.34375 -20.21875 L 23.375 -20.21875 C 24.445312 -20.21875 25.148438 -20.410156 25.484375 -20.796875 C 25.835938 -21.191406 26.015625 -21.800781 26.015625 -22.625 L 26.015625 -25.484375 C 26.015625 -26.390625 25.847656 -27.019531 25.515625 -27.375 C 25.179688 -27.757812 24.617188 -27.953125 23.828125 -27.953125 L 9.46875 -27.953125 C 9.414062 -27.953125 9.390625 -27.867188 9.390625 -27.703125 Z M 9.390625 -6.328125 "/></g></g></g><g fill="#f9943b" fill-opacity="1"><g transform="translate(219.954564, 197.850775)"><g/></g></g><g fill="#f9943b" fill-opacity="1"><g transform="translate(237.90184, 197.850775)"><g/></g></g><g fill="#f9943b" fill-opacity="1"><g transform="translate(255.858012, 197.850775)"><g><path d="M 31.890625 -34.078125 C 32.078125 -34.078125 32.320312 -34 32.625 -33.84375 C 32.9375 -33.695312 33.09375 -33.304688 33.09375 -32.671875 L 33.09375 -29.453125 C 33.09375 -28.753906 32.9375 -28.328125 32.625 -28.171875 C 32.320312 -28.023438 32.078125 -27.953125 31.890625 -27.953125 L 21.265625 -27.953125 L 21.265625 -1.40625 C 21.265625 -0.769531 21.117188 -0.375 20.828125 -0.21875 C 20.535156 -0.0703125 20.289062 0 20.09375 0 L 16.296875 0 C 16.128906 0 15.894531 -0.0703125 15.59375 -0.21875 C 15.289062 -0.375 15.140625 -0.769531 15.140625 -1.40625 L 15.140625 -27.953125 L 4.515625 -27.953125 C 4.316406 -27.953125 4.066406 -28.023438 3.765625 -28.171875 C 3.460938 -28.328125 3.3125 -28.753906 3.3125 -29.453125 L 3.3125 -32.671875 C 3.3125 -33.304688 3.460938 -33.695312 3.765625 -33.84375 C 4.066406 -34 4.316406 -34.078125 4.515625 -34.078125 Z M 31.890625 -34.078125 "/></g></g></g><g clip-path="url(#c17b1c22e2)"><g clip-path="url(#584b4939ce)"><path fill="#003060" d="M 223.136719 163.941406 L 257.328125 163.941406 L 257.328125 198.132812 L 223.136719 198.132812 Z M 223.136719 163.941406 " fill-opacity="1" fill-rule="nonzero"/></g></g><g clip-path="url(#d8ef9454a0)"><g clip-path="url(#a2520215d0)"><path fill="#003060" d="M 206.96875 174.855469 L 206.96875 153.394531 L 240.667969 153.394531 L 240.667969 174.855469 Z M 206.96875 174.855469 " fill-opacity="1" fill-rule="nonzero"/></g></g><g clip-path="url(#ba68a034f3)"><g clip-path="url(#1e6b23b496)"><path fill="#003060" d="M 273.914062 153.398438 L 273.914062 174.859375 L 240.214844 174.859375 L 240.214844 153.398438 Z M 273.914062 153.398438 " fill-opacity="1" fill-rule="nonzero"/></g></g><g clip-path="url(#4088895385)"><g clip-path="url(#cdfb5ccb4b)"><path fill="#003060" d="M 258.796875 161.183594 L 261.734375 161.183594 L 261.734375 178.09375 L 258.796875 178.09375 Z M 258.796875 161.183594 " fill-opacity="1" fill-rule="nonzero"/></g></g><path stroke-linecap="round" transform="matrix(0, 0.249266, -0.249266, 0, 247.071727, 174.746369)" fill="none" stroke-linejoin="miter" d="M 3.99501 4.001792 L 31.826777 4.001792 " stroke="#ffffff" stroke-width="8" stroke-opacity="1" stroke-miterlimit="4"/><path stroke-linecap="round" transform="matrix(0, 0.249266, -0.249266, 0, 235.204458, 174.746369)" fill="none" stroke-linejoin="miter" d="M 3.99501 4.001462 L 31.826777 4.001462 " stroke="#ffffff" stroke-width="8" stroke-opacity="1" stroke-miterlimit="4"/></svg>